<?xml version="1.0" encoding="utf-8"?>
<!-- Generator: Adobe Illustrator 24.2.1, SVG Export Plug-In . SVG Version: 6.00 Build 0)  -->
<svg version="1.1" id="Layer_1" xmlns="http://www.w3.org/2000/svg" xmlns:xlink="http://www.w3.org/1999/xlink" x="0px" y="0px"
	 viewBox="0 0 252 252" style="enable-background:new 0 0 252 252;" xml:space="preserve">
<style type="text/css">
	.st0{fill:#FFFFFF;}
	.st1{clip-path:url(#SVGID_2_);}
	.st2{opacity:0.698;fill:#008B45;}
	.st3{opacity:0.698;fill:none;stroke:#5F559B;stroke-width:1.07;stroke-linecap:square;stroke-miterlimit:10;}
	.st4{font-family:'Helvetica';}
	.st5{font-size:9px;}
	
		.st6{clip-path:url(#SVGID_2_);fill:none;stroke:#000000;stroke-width:1.71;stroke-linecap:round;stroke-linejoin:round;stroke-miterlimit:10;}
	.st7{fill:none;stroke:#000000;stroke-width:0.43;stroke-linejoin:round;stroke-miterlimit:10;}
	.st8{fill:#4D4D4D;}
	.st9{font-size:10px;}
	.st10{fill:none;stroke:#333333;stroke-width:1.07;stroke-linejoin:round;stroke-miterlimit:10;}
</style>
<rect class="st0" width="252" height="252"/>
<g>
	<defs>
		<rect id="SVGID_1_" x="36.78" y="43.21" width="201.04" height="168.19"/>
	</defs>
	<clipPath id="SVGID_2_">
		<use xlink:href="#SVGID_1_"  style="overflow:visible;"/>
	</clipPath>
	<g class="st1">
		<rect x="40.46" y="50.85" class="st2" width="22.07" height="152.9"/>
		<rect x="40.46" y="50.85" class="st3" width="22.07" height="152.9"/>
	</g>
	<g class="st1">
		<rect x="64.98" y="165.03" class="st2" width="22.07" height="38.72"/>
		<rect x="64.98" y="165.03" class="st3" width="22.07" height="38.72"/>
	</g>
	<g class="st1">
		<rect x="89.5" y="192.39" class="st2" width="22.07" height="11.36"/>
		<rect x="89.5" y="192.39" class="st3" width="22.07" height="11.36"/>
	</g>
	<g class="st1">
		<rect x="114.01" y="200.26" class="st2" width="22.07" height="3.49"/>
		<rect x="114.01" y="200.26" class="st3" width="22.07" height="3.49"/>
	</g>
	<g class="st1">
		<rect x="138.53" y="202.67" class="st2" width="22.07" height="1.08"/>
		<rect x="138.53" y="202.67" class="st3" width="22.07" height="1.08"/>
	</g>
	<g class="st1">
		<rect x="163.05" y="203.41" class="st2" width="22.07" height="0.34"/>
		<rect x="163.05" y="203.41" class="st3" width="22.07" height="0.34"/>
	</g>
	<g class="st1">
		<rect x="187.57" y="203.64" class="st2" width="22.07" height="0.11"/>
		<rect x="187.57" y="203.64" class="st3" width="22.07" height="0.11"/>
	</g>
	<g class="st1">
		<rect x="212.08" y="203.71" class="st2" width="22.07" height="0.04"/>
		<rect x="212.08" y="203.71" class="st3" width="22.07" height="0.04"/>
	</g>
	<g class="st1">
		<text transform="matrix(1 0 0 1 42.7402 49.5601)" class="st4 st5">3.08</text>
	</g>
	<g class="st1">
		<text transform="matrix(1 0 0 1 67.2598 163.7402)" class="st4 st5">0.78</text>
	</g>
	<g class="st1">
		<text transform="matrix(1 0 0 1 91.77 191.0898)" class="st4 st5">0.23</text>
	</g>
	<g class="st1">
		<text transform="matrix(1 0 0 1 116.29 198.9697)" class="st4 st5">0.07</text>
	</g>
	<g class="st1">
		<text transform="matrix(1 0 0 1 140.8096 201.3701)" class="st4 st5">0.02</text>
	</g>
	<g class="st1">
		<text transform="matrix(1 0 0 1 165.3203 202.1201)" class="st4 st5">0.01</text>
	</g>
	<g class="st1">
		<text transform="matrix(1 0 0 1 187.21 202.3496)" class="st4 st5">&lt;0.01</text>
	</g>
	<g class="st1">
		<text transform="matrix(1 0 0 1 211.7305 202.4199)" class="st4 st5">&lt;0.01</text>
	</g>
	<rect x="36.78" y="43.21" class="st6" width="201.04" height="168.19"/>
</g>
<line class="st7" x1="36.78" y1="211.4" x2="36.78" y2="43.21"/>
<text transform="matrix(1 0 0 1 26.29 207.3398)" class="st8 st4 st9">0</text>
<text transform="matrix(1 0 0 1 26.29 157.7598)" class="st8 st4 st9">1</text>
<text transform="matrix(1 0 0 1 26.29 108.1802)" class="st8 st4 st9">2</text>
<text transform="matrix(1 0 0 1 26.29 58.6001)" class="st8 st4 st9">3</text>
<line class="st10" x1="34.04" y1="203.75" x2="36.78" y2="203.75"/>
<line class="st10" x1="34.04" y1="154.17" x2="36.78" y2="154.17"/>
<line class="st10" x1="34.04" y1="104.59" x2="36.78" y2="104.59"/>
<line class="st10" x1="34.04" y1="55.01" x2="36.78" y2="55.01"/>
<line class="st7" x1="36.78" y1="211.4" x2="237.83" y2="211.4"/>
<line class="st10" x1="51.49" y1="214.14" x2="51.49" y2="211.4"/>
<line class="st10" x1="76.01" y1="214.14" x2="76.01" y2="211.4"/>
<line class="st10" x1="100.53" y1="214.14" x2="100.53" y2="211.4"/>
<line class="st10" x1="125.05" y1="214.14" x2="125.05" y2="211.4"/>
<line class="st10" x1="149.56" y1="214.14" x2="149.56" y2="211.4"/>
<line class="st10" x1="174.08" y1="214.14" x2="174.08" y2="211.4"/>
<line class="st10" x1="198.6" y1="214.14" x2="198.6" y2="211.4"/>
<line class="st10" x1="223.12" y1="214.14" x2="223.12" y2="211.4"/>
<text transform="matrix(1 0 0 1 48.71 223.5098)" class="st8 st4 st9">1</text>
<text transform="matrix(1 0 0 1 73.23 223.5098)" class="st8 st4 st9">2</text>
<text transform="matrix(1 0 0 1 97.75 223.5098)" class="st8 st4 st9">3</text>
<text transform="matrix(1 0 0 1 122.27 223.5098)" class="st8 st4 st9">4</text>
<text transform="matrix(1 0 0 1 146.7803 223.5098)" class="st8 st4 st9">5</text>
<text transform="matrix(1 0 0 1 171.2998 223.5098)" class="st8 st4 st9">6</text>
<text transform="matrix(1 0 0 1 195.8203 223.5098)" class="st8 st4 st9">7</text>
<text transform="matrix(1 0 0 1 220.3398 223.5098)" class="st8 st4 st9">8</text>
<text transform="matrix(1 0 0 1 123.9702 235.6299)" class="st4 st9">Count</text>
<text transform="matrix(-6.123234e-17 -1 1 -6.123234e-17 21.3502 169.6597)" class="st4 st9">Frequency (X10^7)</text>
<text transform="matrix(1 0 0 1 72.3901 35.5298)"><tspan x="0" y="0" class="st4 st9">peak mat</tspan><tspan x="41.133" y="0" class="st4 st9">r</tspan><tspan x="44.603" y="0" class="st4 st9">ix, f</tspan><tspan x="60.16" y="0" class="st4 st9">r</tspan><tspan x="63.389" y="0" class="st4 st9">agment−based</tspan></text>
</svg>
